<?xml version="1.0" standalone="no"?>
<!DOCTYPE svg PUBLIC "-//W3C//DTD SVG 1.1//EN" "http://www.w3.org/Graphics/SVG/1.1/DTD/svg11.dtd">
<svg width="800" height="600" version="1.1" xmlns="http://www.w3.org/2000/svg">
<rect width="800" height="600" x="0" y="0" style="fill:rgb(238,238,238);stroke:none"/>
<rect width="800" height="600" x="0" y="0" style="fill:rgb(255,255,255);stroke:none"/>
<text x="2" y="566" fill="rgb(0,0,0)" font-family="Arial" font-size="12">0</text>
<text x="2" y="514" fill="rgb(0,0,0)" font-family="Arial" font-size="12">10</text>
<text x="2" y="462" fill="rgb(0,0,0)" font-family="Arial" font-size="12">20</text>
<text x="2" y="410" fill="rgb(0,0,0)" font-family="Arial" font-size="12">30</text>
<text x="2" y="358" fill="rgb(0,0,0)" font-family="Arial" font-size="12">40</text>
<text x="2" y="306" fill="rgb(0,0,0)" font-family="Arial" font-size="12">50</text>
<text x="2" y="254" fill="rgb(0,0,0)" font-family="Arial" font-size="12">60</text>
<text x="2" y="202" fill="rgb(0,0,0)" font-family="Arial" font-size="12">70</text>
<text x="2" y="150" fill="rgb(0,0,0)" font-family="Arial" font-size="12">80</text>
<text x="2" y="98" fill="rgb(0,0,0)" font-family="Arial" font-size="12">90</text>
<text x="2" y="46" fill="rgb(0,0,0)" font-family="Arial" font-size="12">100</text>
<text x="271" y="30" fill="rgb(0,0,0)" font-family="Arial" font-size="12">Percent of seqs remaining if deduplicated 24,14%</text>
<line x1="26" y1="560" x2="790" y2="560" stroke="rgb(0,0,0)" stroke-width="1"/>
<line x1="26" y1="560" x2="26" y2="40" stroke="rgb(0,0,0)" stroke-width="1"/>
<text x="324" y="595" fill="rgb(0,0,0)" font-family="Arial" font-size="12">Sequence Duplication Level</text>
<text x="46" y="575" fill="rgb(0,0,0)" font-family="Arial" font-size="12">1</text>
<rect width="47" height="520" x="73" y="40" style="fill:rgb(230,230,230);stroke:none"/>
<text x="93" y="575" fill="rgb(0,0,0)" font-family="Arial" font-size="12">2</text>
<text x="140" y="575" fill="rgb(0,0,0)" font-family="Arial" font-size="12">3</text>
<rect width="47" height="520" x="167" y="40" style="fill:rgb(230,230,230);stroke:none"/>
<text x="187" y="575" fill="rgb(0,0,0)" font-family="Arial" font-size="12">4</text>
<text x="234" y="575" fill="rgb(0,0,0)" font-family="Arial" font-size="12">5</text>
<rect width="47" height="520" x="261" y="40" style="fill:rgb(230,230,230);stroke:none"/>
<text x="281" y="575" fill="rgb(0,0,0)" font-family="Arial" font-size="12">6</text>
<text x="328" y="575" fill="rgb(0,0,0)" font-family="Arial" font-size="12">7</text>
<rect width="47" height="520" x="355" y="40" style="fill:rgb(230,230,230);stroke:none"/>
<text x="375" y="575" fill="rgb(0,0,0)" font-family="Arial" font-size="12">8</text>
<text x="422" y="575" fill="rgb(0,0,0)" font-family="Arial" font-size="12">9</text>
<rect width="47" height="520" x="449" y="40" style="fill:rgb(230,230,230);stroke:none"/>
<text x="462" y="575" fill="rgb(0,0,0)" font-family="Arial" font-size="12">&gt;10</text>
<text x="509" y="575" fill="rgb(0,0,0)" font-family="Arial" font-size="12">&gt;50</text>
<rect width="47" height="520" x="543" y="40" style="fill:rgb(230,230,230);stroke:none"/>
<text x="552" y="575" fill="rgb(0,0,0)" font-family="Arial" font-size="12">&gt;100</text>
<text x="599" y="575" fill="rgb(0,0,0)" font-family="Arial" font-size="12">&gt;500</text>
<rect width="47" height="520" x="637" y="40" style="fill:rgb(230,230,230);stroke:none"/>
<text x="650" y="575" fill="rgb(0,0,0)" font-family="Arial" font-size="12">&gt;1k</text>
<text x="697" y="575" fill="rgb(0,0,0)" font-family="Arial" font-size="12">&gt;5k</text>
<rect width="47" height="520" x="731" y="40" style="fill:rgb(230,230,230);stroke:none"/>
<text x="741" y="575" fill="rgb(0,0,0)" font-family="Arial" font-size="12">&gt;10k</text>
<line x1="26" y1="560" x2="790" y2="560" stroke="rgb(180,180,180)" stroke-width="1"/>
<line x1="26" y1="508" x2="790" y2="508" stroke="rgb(180,180,180)" stroke-width="1"/>
<line x1="26" y1="456" x2="790" y2="456" stroke="rgb(180,180,180)" stroke-width="1"/>
<line x1="26" y1="404" x2="790" y2="404" stroke="rgb(180,180,180)" stroke-width="1"/>
<line x1="26" y1="352" x2="790" y2="352" stroke="rgb(180,180,180)" stroke-width="1"/>
<line x1="26" y1="300" x2="790" y2="300" stroke="rgb(180,180,180)" stroke-width="1"/>
<line x1="26" y1="248" x2="790" y2="248" stroke="rgb(180,180,180)" stroke-width="1"/>
<line x1="26" y1="196" x2="790" y2="196" stroke="rgb(180,180,180)" stroke-width="1"/>
<line x1="26" y1="144" x2="790" y2="144" stroke="rgb(180,180,180)" stroke-width="1"/>
<line x1="26" y1="92" x2="790" y2="92" stroke="rgb(180,180,180)" stroke-width="1"/>
<line x1="26" y1="40" x2="790" y2="40" stroke="rgb(180,180,180)" stroke-width="1"/>
<line x1="49" y1="477" x2="96" y2="521" stroke="rgb(136,34,85)" stroke-width="1"/>
<line x1="96" y1="521" x2="143" y2="540" stroke="rgb(136,34,85)" stroke-width="1"/>
<line x1="143" y1="540" x2="190" y2="546" stroke="rgb(136,34,85)" stroke-width="1"/>
<line x1="190" y1="546" x2="237" y2="550" stroke="rgb(136,34,85)" stroke-width="1"/>
<line x1="237" y1="550" x2="284" y2="552" stroke="rgb(136,34,85)" stroke-width="1"/>
<line x1="284" y1="552" x2="331" y2="553" stroke="rgb(136,34,85)" stroke-width="1"/>
<line x1="331" y1="553" x2="378" y2="554" stroke="rgb(136,34,85)" stroke-width="1"/>
<line x1="378" y1="554" x2="425" y2="555" stroke="rgb(136,34,85)" stroke-width="1"/>
<line x1="425" y1="555" x2="472" y2="470" stroke="rgb(136,34,85)" stroke-width="1"/>
<line x1="472" y1="470" x2="519" y2="519" stroke="rgb(136,34,85)" stroke-width="1"/>
<line x1="519" y1="519" x2="566" y2="473" stroke="rgb(136,34,85)" stroke-width="1"/>
<line x1="566" y1="473" x2="613" y2="532" stroke="rgb(136,34,85)" stroke-width="1"/>
<line x1="613" y1="532" x2="660" y2="517" stroke="rgb(136,34,85)" stroke-width="1"/>
<line x1="660" y1="517" x2="707" y2="546" stroke="rgb(136,34,85)" stroke-width="1"/>
<line x1="707" y1="546" x2="754" y2="542" stroke="rgb(136,34,85)" stroke-width="1"/>
<rect width="116" height="23" x="674" y="40" style="fill:rgb(255,255,255);stroke:none"/>
<rect width="116" height="23" x="674" y="40" rx="0" ry="0" style="fill:none;stroke-width:1;stroke:rgb(192,192,192)"/>
<text x="677" y="55" fill="rgb(136,34,85)" font-family="Arial" font-size="12" font-weight="bold">% Total sequences</text>
</svg>
