<?xml version="1.0" standalone="no"?>
<!DOCTYPE svg PUBLIC "-//W3C//DTD SVG 1.1//EN" "http://www.w3.org/Graphics/SVG/1.1/DTD/svg11.dtd">
<svg width="800" height="600" version="1.1" xmlns="http://www.w3.org/2000/svg">
<rect width="800" height="600" x="0" y="0" style="fill:rgb(238,238,238);stroke:none"/>
<rect width="800" height="600" x="0" y="0" style="fill:rgb(255,255,255);stroke:none"/>
<text x="2" y="566" fill="rgb(0,0,0)" font-family="Arial" font-size="12">0</text>
<text x="2" y="466" fill="rgb(0,0,0)" font-family="Arial" font-size="12">5000000</text>
<text x="2" y="366" fill="rgb(0,0,0)" font-family="Arial" font-size="12">1.0E7</text>
<text x="2" y="266" fill="rgb(0,0,0)" font-family="Arial" font-size="12">1.5E7</text>
<text x="2" y="166" fill="rgb(0,0,0)" font-family="Arial" font-size="12">2.0E7</text>
<text x="2" y="66" fill="rgb(0,0,0)" font-family="Arial" font-size="12">2.5E7</text>
<text x="279" y="30" fill="rgb(0,0,0)" font-family="Arial" font-size="12">Distribution of sequence lengths over all sequences</text>
<line x1="54" y1="560" x2="790" y2="560" stroke="rgb(0,0,0)" stroke-width="1"/>
<line x1="54" y1="560" x2="54" y2="40" stroke="rgb(0,0,0)" stroke-width="1"/>
<text x="340" y="595" fill="rgb(0,0,0)" font-family="Arial" font-size="12">Sequence Length (bp)</text>
<text x="63" y="575" fill="rgb(0,0,0)" font-family="Arial" font-size="12">69</text>
<rect width="32" height="520" x="86" y="40" style="fill:rgb(230,230,230);stroke:none"/>
<text x="95" y="575" fill="rgb(0,0,0)" font-family="Arial" font-size="12">70</text>
<text x="127" y="575" fill="rgb(0,0,0)" font-family="Arial" font-size="12">71</text>
<rect width="32" height="520" x="150" y="40" style="fill:rgb(230,230,230);stroke:none"/>
<text x="159" y="575" fill="rgb(0,0,0)" font-family="Arial" font-size="12">72</text>
<text x="191" y="575" fill="rgb(0,0,0)" font-family="Arial" font-size="12">73</text>
<rect width="32" height="520" x="214" y="40" style="fill:rgb(230,230,230);stroke:none"/>
<text x="223" y="575" fill="rgb(0,0,0)" font-family="Arial" font-size="12">74</text>
<text x="255" y="575" fill="rgb(0,0,0)" font-family="Arial" font-size="12">75</text>
<rect width="32" height="520" x="278" y="40" style="fill:rgb(230,230,230);stroke:none"/>
<text x="287" y="575" fill="rgb(0,0,0)" font-family="Arial" font-size="12">76</text>
<text x="319" y="575" fill="rgb(0,0,0)" font-family="Arial" font-size="12">77</text>
<rect width="32" height="520" x="342" y="40" style="fill:rgb(230,230,230);stroke:none"/>
<text x="351" y="575" fill="rgb(0,0,0)" font-family="Arial" font-size="12">78</text>
<text x="383" y="575" fill="rgb(0,0,0)" font-family="Arial" font-size="12">79</text>
<rect width="32" height="520" x="406" y="40" style="fill:rgb(230,230,230);stroke:none"/>
<text x="415" y="575" fill="rgb(0,0,0)" font-family="Arial" font-size="12">80</text>
<text x="447" y="575" fill="rgb(0,0,0)" font-family="Arial" font-size="12">81</text>
<rect width="32" height="520" x="470" y="40" style="fill:rgb(230,230,230);stroke:none"/>
<text x="479" y="575" fill="rgb(0,0,0)" font-family="Arial" font-size="12">82</text>
<text x="511" y="575" fill="rgb(0,0,0)" font-family="Arial" font-size="12">83</text>
<rect width="32" height="520" x="534" y="40" style="fill:rgb(230,230,230);stroke:none"/>
<text x="543" y="575" fill="rgb(0,0,0)" font-family="Arial" font-size="12">84</text>
<text x="575" y="575" fill="rgb(0,0,0)" font-family="Arial" font-size="12">85</text>
<rect width="32" height="520" x="598" y="40" style="fill:rgb(230,230,230);stroke:none"/>
<text x="607" y="575" fill="rgb(0,0,0)" font-family="Arial" font-size="12">86</text>
<text x="639" y="575" fill="rgb(0,0,0)" font-family="Arial" font-size="12">87</text>
<rect width="32" height="520" x="662" y="40" style="fill:rgb(230,230,230);stroke:none"/>
<text x="671" y="575" fill="rgb(0,0,0)" font-family="Arial" font-size="12">88</text>
<text x="703" y="575" fill="rgb(0,0,0)" font-family="Arial" font-size="12">89</text>
<rect width="32" height="520" x="726" y="40" style="fill:rgb(230,230,230);stroke:none"/>
<text x="735" y="575" fill="rgb(0,0,0)" font-family="Arial" font-size="12">90</text>
<text x="767" y="575" fill="rgb(0,0,0)" font-family="Arial" font-size="12">91</text>
<line x1="54" y1="560" x2="790" y2="560" stroke="rgb(180,180,180)" stroke-width="1"/>
<line x1="54" y1="460" x2="790" y2="460" stroke="rgb(180,180,180)" stroke-width="1"/>
<line x1="54" y1="360" x2="790" y2="360" stroke="rgb(180,180,180)" stroke-width="1"/>
<line x1="54" y1="260" x2="790" y2="260" stroke="rgb(180,180,180)" stroke-width="1"/>
<line x1="54" y1="160" x2="790" y2="160" stroke="rgb(180,180,180)" stroke-width="1"/>
<line x1="54" y1="60" x2="790" y2="60" stroke="rgb(180,180,180)" stroke-width="1"/>
<line x1="70" y1="560" x2="102" y2="560" stroke="rgb(136,34,85)" stroke-width="1"/>
<line x1="102" y1="560" x2="134" y2="560" stroke="rgb(136,34,85)" stroke-width="1"/>
<line x1="134" y1="560" x2="166" y2="560" stroke="rgb(136,34,85)" stroke-width="1"/>
<line x1="166" y1="560" x2="198" y2="560" stroke="rgb(136,34,85)" stroke-width="1"/>
<line x1="198" y1="560" x2="230" y2="560" stroke="rgb(136,34,85)" stroke-width="1"/>
<line x1="230" y1="560" x2="262" y2="560" stroke="rgb(136,34,85)" stroke-width="1"/>
<line x1="262" y1="560" x2="294" y2="560" stroke="rgb(136,34,85)" stroke-width="1"/>
<line x1="294" y1="560" x2="326" y2="560" stroke="rgb(136,34,85)" stroke-width="1"/>
<line x1="326" y1="560" x2="358" y2="560" stroke="rgb(136,34,85)" stroke-width="1"/>
<line x1="358" y1="560" x2="390" y2="560" stroke="rgb(136,34,85)" stroke-width="1"/>
<line x1="390" y1="560" x2="422" y2="560" stroke="rgb(136,34,85)" stroke-width="1"/>
<line x1="422" y1="560" x2="454" y2="560" stroke="rgb(136,34,85)" stroke-width="1"/>
<line x1="454" y1="560" x2="486" y2="560" stroke="rgb(136,34,85)" stroke-width="1"/>
<line x1="486" y1="560" x2="518" y2="560" stroke="rgb(136,34,85)" stroke-width="1"/>
<line x1="518" y1="560" x2="550" y2="560" stroke="rgb(136,34,85)" stroke-width="1"/>
<line x1="550" y1="560" x2="582" y2="560" stroke="rgb(136,34,85)" stroke-width="1"/>
<line x1="582" y1="560" x2="614" y2="560" stroke="rgb(136,34,85)" stroke-width="1"/>
<line x1="614" y1="560" x2="646" y2="560" stroke="rgb(136,34,85)" stroke-width="1"/>
<line x1="646" y1="560" x2="678" y2="560" stroke="rgb(136,34,85)" stroke-width="1"/>
<line x1="678" y1="560" x2="710" y2="560" stroke="rgb(136,34,85)" stroke-width="1"/>
<line x1="710" y1="560" x2="742" y2="40" stroke="rgb(136,34,85)" stroke-width="1"/>
<line x1="742" y1="40" x2="774" y2="560" stroke="rgb(136,34,85)" stroke-width="1"/>
<rect width="110" height="23" x="680" y="40" style="fill:rgb(255,255,255);stroke:none"/>
<rect width="110" height="23" x="680" y="40" rx="0" ry="0" style="fill:none;stroke-width:1;stroke:rgb(192,192,192)"/>
<text x="683" y="55" fill="rgb(136,34,85)" font-family="Arial" font-size="12" font-weight="bold">Sequence Length</text>
</svg>
