<?xml version="1.0" standalone="no"?>
<!DOCTYPE svg PUBLIC "-//W3C//DTD SVG 1.1//EN" "http://www.w3.org/Graphics/SVG/1.1/DTD/svg11.dtd">
<svg width="1350" height="600" version="1.1" xmlns="http://www.w3.org/2000/svg">
<rect width="1350" height="600" x="0" y="0" style="fill:rgb(238,238,238);stroke:none"/>
<rect width="1350" height="600" x="0" y="0" style="fill:rgb(255,255,255);stroke:none"/>
<text x="2" y="566" fill="rgb(0,0,0)" font-family="Arial" font-size="12">0</text>
<text x="2" y="514" fill="rgb(0,0,0)" font-family="Arial" font-size="12">10</text>
<text x="2" y="462" fill="rgb(0,0,0)" font-family="Arial" font-size="12">20</text>
<text x="2" y="410" fill="rgb(0,0,0)" font-family="Arial" font-size="12">30</text>
<text x="2" y="358" fill="rgb(0,0,0)" font-family="Arial" font-size="12">40</text>
<text x="2" y="306" fill="rgb(0,0,0)" font-family="Arial" font-size="12">50</text>
<text x="2" y="254" fill="rgb(0,0,0)" font-family="Arial" font-size="12">60</text>
<text x="2" y="202" fill="rgb(0,0,0)" font-family="Arial" font-size="12">70</text>
<text x="2" y="150" fill="rgb(0,0,0)" font-family="Arial" font-size="12">80</text>
<text x="2" y="98" fill="rgb(0,0,0)" font-family="Arial" font-size="12">90</text>
<text x="2" y="46" fill="rgb(0,0,0)" font-family="Arial" font-size="12">100</text>
<text x="587" y="30" fill="rgb(0,0,0)" font-family="Arial" font-size="12">Sequence content across all bases</text>
<line x1="26" y1="560" x2="1340" y2="560" stroke="rgb(0,0,0)" stroke-width="1"/>
<line x1="26" y1="560" x2="26" y2="40" stroke="rgb(0,0,0)" stroke-width="1"/>
<text x="620" y="595" fill="rgb(0,0,0)" font-family="Arial" font-size="12">Position in read (bp)</text>
<text x="30" y="575" fill="rgb(0,0,0)" font-family="Arial" font-size="12">1</text>
<rect width="14" height="520" x="40" y="40" style="fill:rgb(230,230,230);stroke:none"/>
<text x="44" y="575" fill="rgb(0,0,0)" font-family="Arial" font-size="12">2</text>
<text x="58" y="575" fill="rgb(0,0,0)" font-family="Arial" font-size="12">3</text>
<rect width="14" height="520" x="68" y="40" style="fill:rgb(230,230,230);stroke:none"/>
<text x="72" y="575" fill="rgb(0,0,0)" font-family="Arial" font-size="12">4</text>
<text x="86" y="575" fill="rgb(0,0,0)" font-family="Arial" font-size="12">5</text>
<rect width="14" height="520" x="96" y="40" style="fill:rgb(230,230,230);stroke:none"/>
<text x="100" y="575" fill="rgb(0,0,0)" font-family="Arial" font-size="12">6</text>
<text x="114" y="575" fill="rgb(0,0,0)" font-family="Arial" font-size="12">7</text>
<rect width="14" height="520" x="124" y="40" style="fill:rgb(230,230,230);stroke:none"/>
<text x="128" y="575" fill="rgb(0,0,0)" font-family="Arial" font-size="12">8</text>
<text x="142" y="575" fill="rgb(0,0,0)" font-family="Arial" font-size="12">9</text>
<rect width="14" height="520" x="152" y="40" style="fill:rgb(230,230,230);stroke:none"/>
<text x="166" y="575" fill="rgb(0,0,0)" font-family="Arial" font-size="12">11</text>
<rect width="14" height="520" x="180" y="40" style="fill:rgb(230,230,230);stroke:none"/>
<text x="194" y="575" fill="rgb(0,0,0)" font-family="Arial" font-size="12">13</text>
<rect width="14" height="520" x="208" y="40" style="fill:rgb(230,230,230);stroke:none"/>
<text x="222" y="575" fill="rgb(0,0,0)" font-family="Arial" font-size="12">15</text>
<rect width="14" height="520" x="236" y="40" style="fill:rgb(230,230,230);stroke:none"/>
<text x="250" y="575" fill="rgb(0,0,0)" font-family="Arial" font-size="12">17</text>
<rect width="14" height="520" x="264" y="40" style="fill:rgb(230,230,230);stroke:none"/>
<text x="278" y="575" fill="rgb(0,0,0)" font-family="Arial" font-size="12">19</text>
<rect width="14" height="520" x="292" y="40" style="fill:rgb(230,230,230);stroke:none"/>
<text x="306" y="575" fill="rgb(0,0,0)" font-family="Arial" font-size="12">21</text>
<rect width="14" height="520" x="320" y="40" style="fill:rgb(230,230,230);stroke:none"/>
<text x="334" y="575" fill="rgb(0,0,0)" font-family="Arial" font-size="12">23</text>
<rect width="14" height="520" x="348" y="40" style="fill:rgb(230,230,230);stroke:none"/>
<text x="362" y="575" fill="rgb(0,0,0)" font-family="Arial" font-size="12">25</text>
<rect width="14" height="520" x="376" y="40" style="fill:rgb(230,230,230);stroke:none"/>
<text x="390" y="575" fill="rgb(0,0,0)" font-family="Arial" font-size="12">27</text>
<rect width="14" height="520" x="404" y="40" style="fill:rgb(230,230,230);stroke:none"/>
<text x="418" y="575" fill="rgb(0,0,0)" font-family="Arial" font-size="12">29</text>
<rect width="14" height="520" x="432" y="40" style="fill:rgb(230,230,230);stroke:none"/>
<text x="446" y="575" fill="rgb(0,0,0)" font-family="Arial" font-size="12">31</text>
<rect width="14" height="520" x="460" y="40" style="fill:rgb(230,230,230);stroke:none"/>
<text x="474" y="575" fill="rgb(0,0,0)" font-family="Arial" font-size="12">33</text>
<rect width="14" height="520" x="488" y="40" style="fill:rgb(230,230,230);stroke:none"/>
<text x="502" y="575" fill="rgb(0,0,0)" font-family="Arial" font-size="12">35</text>
<rect width="14" height="520" x="516" y="40" style="fill:rgb(230,230,230);stroke:none"/>
<text x="530" y="575" fill="rgb(0,0,0)" font-family="Arial" font-size="12">37</text>
<rect width="14" height="520" x="544" y="40" style="fill:rgb(230,230,230);stroke:none"/>
<text x="558" y="575" fill="rgb(0,0,0)" font-family="Arial" font-size="12">39</text>
<rect width="14" height="520" x="572" y="40" style="fill:rgb(230,230,230);stroke:none"/>
<text x="586" y="575" fill="rgb(0,0,0)" font-family="Arial" font-size="12">41</text>
<rect width="14" height="520" x="600" y="40" style="fill:rgb(230,230,230);stroke:none"/>
<text x="614" y="575" fill="rgb(0,0,0)" font-family="Arial" font-size="12">43</text>
<rect width="14" height="520" x="628" y="40" style="fill:rgb(230,230,230);stroke:none"/>
<text x="642" y="575" fill="rgb(0,0,0)" font-family="Arial" font-size="12">45</text>
<rect width="14" height="520" x="656" y="40" style="fill:rgb(230,230,230);stroke:none"/>
<text x="670" y="575" fill="rgb(0,0,0)" font-family="Arial" font-size="12">47</text>
<rect width="14" height="520" x="684" y="40" style="fill:rgb(230,230,230);stroke:none"/>
<text x="698" y="575" fill="rgb(0,0,0)" font-family="Arial" font-size="12">49</text>
<rect width="14" height="520" x="712" y="40" style="fill:rgb(230,230,230);stroke:none"/>
<text x="726" y="575" fill="rgb(0,0,0)" font-family="Arial" font-size="12">51</text>
<rect width="14" height="520" x="740" y="40" style="fill:rgb(230,230,230);stroke:none"/>
<text x="754" y="575" fill="rgb(0,0,0)" font-family="Arial" font-size="12">53</text>
<rect width="14" height="520" x="768" y="40" style="fill:rgb(230,230,230);stroke:none"/>
<text x="782" y="575" fill="rgb(0,0,0)" font-family="Arial" font-size="12">55</text>
<rect width="14" height="520" x="796" y="40" style="fill:rgb(230,230,230);stroke:none"/>
<text x="810" y="575" fill="rgb(0,0,0)" font-family="Arial" font-size="12">57</text>
<rect width="14" height="520" x="824" y="40" style="fill:rgb(230,230,230);stroke:none"/>
<text x="838" y="575" fill="rgb(0,0,0)" font-family="Arial" font-size="12">59</text>
<rect width="14" height="520" x="852" y="40" style="fill:rgb(230,230,230);stroke:none"/>
<text x="866" y="575" fill="rgb(0,0,0)" font-family="Arial" font-size="12">61</text>
<rect width="14" height="520" x="880" y="40" style="fill:rgb(230,230,230);stroke:none"/>
<text x="894" y="575" fill="rgb(0,0,0)" font-family="Arial" font-size="12">63</text>
<rect width="14" height="520" x="908" y="40" style="fill:rgb(230,230,230);stroke:none"/>
<text x="922" y="575" fill="rgb(0,0,0)" font-family="Arial" font-size="12">65</text>
<rect width="14" height="520" x="936" y="40" style="fill:rgb(230,230,230);stroke:none"/>
<text x="950" y="575" fill="rgb(0,0,0)" font-family="Arial" font-size="12">67</text>
<rect width="14" height="520" x="964" y="40" style="fill:rgb(230,230,230);stroke:none"/>
<text x="978" y="575" fill="rgb(0,0,0)" font-family="Arial" font-size="12">69</text>
<rect width="14" height="520" x="992" y="40" style="fill:rgb(230,230,230);stroke:none"/>
<text x="1006" y="575" fill="rgb(0,0,0)" font-family="Arial" font-size="12">71</text>
<rect width="14" height="520" x="1020" y="40" style="fill:rgb(230,230,230);stroke:none"/>
<text x="1034" y="575" fill="rgb(0,0,0)" font-family="Arial" font-size="12">73</text>
<rect width="14" height="520" x="1048" y="40" style="fill:rgb(230,230,230);stroke:none"/>
<text x="1062" y="575" fill="rgb(0,0,0)" font-family="Arial" font-size="12">75</text>
<rect width="14" height="520" x="1076" y="40" style="fill:rgb(230,230,230);stroke:none"/>
<text x="1090" y="575" fill="rgb(0,0,0)" font-family="Arial" font-size="12">77</text>
<rect width="14" height="520" x="1104" y="40" style="fill:rgb(230,230,230);stroke:none"/>
<text x="1118" y="575" fill="rgb(0,0,0)" font-family="Arial" font-size="12">79</text>
<rect width="14" height="520" x="1132" y="40" style="fill:rgb(230,230,230);stroke:none"/>
<text x="1146" y="575" fill="rgb(0,0,0)" font-family="Arial" font-size="12">81</text>
<rect width="14" height="520" x="1160" y="40" style="fill:rgb(230,230,230);stroke:none"/>
<text x="1174" y="575" fill="rgb(0,0,0)" font-family="Arial" font-size="12">83</text>
<rect width="14" height="520" x="1188" y="40" style="fill:rgb(230,230,230);stroke:none"/>
<text x="1202" y="575" fill="rgb(0,0,0)" font-family="Arial" font-size="12">85</text>
<rect width="14" height="520" x="1216" y="40" style="fill:rgb(230,230,230);stroke:none"/>
<text x="1230" y="575" fill="rgb(0,0,0)" font-family="Arial" font-size="12">87</text>
<rect width="14" height="520" x="1244" y="40" style="fill:rgb(230,230,230);stroke:none"/>
<text x="1258" y="575" fill="rgb(0,0,0)" font-family="Arial" font-size="12">89</text>
<rect width="14" height="520" x="1272" y="40" style="fill:rgb(230,230,230);stroke:none"/>
<line x1="26" y1="560" x2="1340" y2="560" stroke="rgb(180,180,180)" stroke-width="1"/>
<line x1="26" y1="508" x2="1340" y2="508" stroke="rgb(180,180,180)" stroke-width="1"/>
<line x1="26" y1="456" x2="1340" y2="456" stroke="rgb(180,180,180)" stroke-width="1"/>
<line x1="26" y1="404" x2="1340" y2="404" stroke="rgb(180,180,180)" stroke-width="1"/>
<line x1="26" y1="352" x2="1340" y2="352" stroke="rgb(180,180,180)" stroke-width="1"/>
<line x1="26" y1="300" x2="1340" y2="300" stroke="rgb(180,180,180)" stroke-width="1"/>
<line x1="26" y1="248" x2="1340" y2="248" stroke="rgb(180,180,180)" stroke-width="1"/>
<line x1="26" y1="196" x2="1340" y2="196" stroke="rgb(180,180,180)" stroke-width="1"/>
<line x1="26" y1="144" x2="1340" y2="144" stroke="rgb(180,180,180)" stroke-width="1"/>
<line x1="26" y1="92" x2="1340" y2="92" stroke="rgb(180,180,180)" stroke-width="1"/>
<line x1="26" y1="40" x2="1340" y2="40" stroke="rgb(180,180,180)" stroke-width="1"/>
<line x1="33" y1="475" x2="47" y2="393" stroke="rgb(136,34,85)" stroke-width="1"/>
<line x1="47" y1="393" x2="61" y2="439" stroke="rgb(136,34,85)" stroke-width="1"/>
<line x1="61" y1="439" x2="75" y2="446" stroke="rgb(136,34,85)" stroke-width="1"/>
<line x1="75" y1="446" x2="89" y2="425" stroke="rgb(136,34,85)" stroke-width="1"/>
<line x1="89" y1="425" x2="103" y2="430" stroke="rgb(136,34,85)" stroke-width="1"/>
<line x1="103" y1="430" x2="117" y2="339" stroke="rgb(136,34,85)" stroke-width="1"/>
<line x1="117" y1="339" x2="131" y2="398" stroke="rgb(136,34,85)" stroke-width="1"/>
<line x1="131" y1="398" x2="145" y2="389" stroke="rgb(136,34,85)" stroke-width="1"/>
<line x1="145" y1="389" x2="159" y2="427" stroke="rgb(136,34,85)" stroke-width="1"/>
<line x1="159" y1="427" x2="173" y2="445" stroke="rgb(136,34,85)" stroke-width="1"/>
<line x1="173" y1="445" x2="187" y2="409" stroke="rgb(136,34,85)" stroke-width="1"/>
<line x1="187" y1="409" x2="201" y2="400" stroke="rgb(136,34,85)" stroke-width="1"/>
<line x1="201" y1="400" x2="215" y2="406" stroke="rgb(136,34,85)" stroke-width="1"/>
<line x1="215" y1="406" x2="229" y2="411" stroke="rgb(136,34,85)" stroke-width="1"/>
<line x1="229" y1="411" x2="243" y2="416" stroke="rgb(136,34,85)" stroke-width="1"/>
<line x1="243" y1="416" x2="257" y2="414" stroke="rgb(136,34,85)" stroke-width="1"/>
<line x1="257" y1="414" x2="271" y2="413" stroke="rgb(136,34,85)" stroke-width="1"/>
<line x1="271" y1="413" x2="285" y2="413" stroke="rgb(136,34,85)" stroke-width="1"/>
<line x1="285" y1="413" x2="299" y2="415" stroke="rgb(136,34,85)" stroke-width="1"/>
<line x1="299" y1="415" x2="313" y2="411" stroke="rgb(136,34,85)" stroke-width="1"/>
<line x1="313" y1="411" x2="327" y2="413" stroke="rgb(136,34,85)" stroke-width="1"/>
<line x1="327" y1="413" x2="341" y2="411" stroke="rgb(136,34,85)" stroke-width="1"/>
<line x1="341" y1="411" x2="355" y2="411" stroke="rgb(136,34,85)" stroke-width="1"/>
<line x1="355" y1="411" x2="369" y2="414" stroke="rgb(136,34,85)" stroke-width="1"/>
<line x1="369" y1="414" x2="383" y2="413" stroke="rgb(136,34,85)" stroke-width="1"/>
<line x1="383" y1="413" x2="397" y2="411" stroke="rgb(136,34,85)" stroke-width="1"/>
<line x1="397" y1="411" x2="411" y2="415" stroke="rgb(136,34,85)" stroke-width="1"/>
<line x1="411" y1="415" x2="425" y2="418" stroke="rgb(136,34,85)" stroke-width="1"/>
<line x1="425" y1="418" x2="439" y2="415" stroke="rgb(136,34,85)" stroke-width="1"/>
<line x1="439" y1="415" x2="453" y2="416" stroke="rgb(136,34,85)" stroke-width="1"/>
<line x1="453" y1="416" x2="467" y2="417" stroke="rgb(136,34,85)" stroke-width="1"/>
<line x1="467" y1="417" x2="481" y2="417" stroke="rgb(136,34,85)" stroke-width="1"/>
<line x1="481" y1="417" x2="495" y2="419" stroke="rgb(136,34,85)" stroke-width="1"/>
<line x1="495" y1="419" x2="509" y2="419" stroke="rgb(136,34,85)" stroke-width="1"/>
<line x1="509" y1="419" x2="523" y2="415" stroke="rgb(136,34,85)" stroke-width="1"/>
<line x1="523" y1="415" x2="537" y2="415" stroke="rgb(136,34,85)" stroke-width="1"/>
<line x1="537" y1="415" x2="551" y2="415" stroke="rgb(136,34,85)" stroke-width="1"/>
<line x1="551" y1="415" x2="565" y2="415" stroke="rgb(136,34,85)" stroke-width="1"/>
<line x1="565" y1="415" x2="579" y2="419" stroke="rgb(136,34,85)" stroke-width="1"/>
<line x1="579" y1="419" x2="593" y2="417" stroke="rgb(136,34,85)" stroke-width="1"/>
<line x1="593" y1="417" x2="607" y2="416" stroke="rgb(136,34,85)" stroke-width="1"/>
<line x1="607" y1="416" x2="621" y2="417" stroke="rgb(136,34,85)" stroke-width="1"/>
<line x1="621" y1="417" x2="635" y2="418" stroke="rgb(136,34,85)" stroke-width="1"/>
<line x1="635" y1="418" x2="649" y2="418" stroke="rgb(136,34,85)" stroke-width="1"/>
<line x1="649" y1="418" x2="663" y2="415" stroke="rgb(136,34,85)" stroke-width="1"/>
<line x1="663" y1="415" x2="677" y2="417" stroke="rgb(136,34,85)" stroke-width="1"/>
<line x1="677" y1="417" x2="691" y2="415" stroke="rgb(136,34,85)" stroke-width="1"/>
<line x1="691" y1="415" x2="705" y2="415" stroke="rgb(136,34,85)" stroke-width="1"/>
<line x1="705" y1="415" x2="719" y2="417" stroke="rgb(136,34,85)" stroke-width="1"/>
<line x1="719" y1="417" x2="733" y2="415" stroke="rgb(136,34,85)" stroke-width="1"/>
<line x1="733" y1="415" x2="747" y2="416" stroke="rgb(136,34,85)" stroke-width="1"/>
<line x1="747" y1="416" x2="761" y2="418" stroke="rgb(136,34,85)" stroke-width="1"/>
<line x1="761" y1="418" x2="775" y2="416" stroke="rgb(136,34,85)" stroke-width="1"/>
<line x1="775" y1="416" x2="789" y2="416" stroke="rgb(136,34,85)" stroke-width="1"/>
<line x1="789" y1="416" x2="803" y2="419" stroke="rgb(136,34,85)" stroke-width="1"/>
<line x1="803" y1="419" x2="817" y2="414" stroke="rgb(136,34,85)" stroke-width="1"/>
<line x1="817" y1="414" x2="831" y2="418" stroke="rgb(136,34,85)" stroke-width="1"/>
<line x1="831" y1="418" x2="845" y2="415" stroke="rgb(136,34,85)" stroke-width="1"/>
<line x1="845" y1="415" x2="859" y2="417" stroke="rgb(136,34,85)" stroke-width="1"/>
<line x1="859" y1="417" x2="873" y2="417" stroke="rgb(136,34,85)" stroke-width="1"/>
<line x1="873" y1="417" x2="887" y2="418" stroke="rgb(136,34,85)" stroke-width="1"/>
<line x1="887" y1="418" x2="901" y2="418" stroke="rgb(136,34,85)" stroke-width="1"/>
<line x1="901" y1="418" x2="915" y2="416" stroke="rgb(136,34,85)" stroke-width="1"/>
<line x1="915" y1="416" x2="929" y2="418" stroke="rgb(136,34,85)" stroke-width="1"/>
<line x1="929" y1="418" x2="943" y2="416" stroke="rgb(136,34,85)" stroke-width="1"/>
<line x1="943" y1="416" x2="957" y2="419" stroke="rgb(136,34,85)" stroke-width="1"/>
<line x1="957" y1="419" x2="971" y2="421" stroke="rgb(136,34,85)" stroke-width="1"/>
<line x1="971" y1="421" x2="985" y2="419" stroke="rgb(136,34,85)" stroke-width="1"/>
<line x1="985" y1="419" x2="999" y2="420" stroke="rgb(136,34,85)" stroke-width="1"/>
<line x1="999" y1="420" x2="1013" y2="420" stroke="rgb(136,34,85)" stroke-width="1"/>
<line x1="1013" y1="420" x2="1027" y2="418" stroke="rgb(136,34,85)" stroke-width="1"/>
<line x1="1027" y1="418" x2="1041" y2="418" stroke="rgb(136,34,85)" stroke-width="1"/>
<line x1="1041" y1="418" x2="1055" y2="418" stroke="rgb(136,34,85)" stroke-width="1"/>
<line x1="1055" y1="418" x2="1069" y2="417" stroke="rgb(136,34,85)" stroke-width="1"/>
<line x1="1069" y1="417" x2="1083" y2="417" stroke="rgb(136,34,85)" stroke-width="1"/>
<line x1="1083" y1="417" x2="1097" y2="416" stroke="rgb(136,34,85)" stroke-width="1"/>
<line x1="1097" y1="416" x2="1111" y2="416" stroke="rgb(136,34,85)" stroke-width="1"/>
<line x1="1111" y1="416" x2="1125" y2="416" stroke="rgb(136,34,85)" stroke-width="1"/>
<line x1="1125" y1="416" x2="1139" y2="411" stroke="rgb(136,34,85)" stroke-width="1"/>
<line x1="1139" y1="411" x2="1153" y2="414" stroke="rgb(136,34,85)" stroke-width="1"/>
<line x1="1153" y1="414" x2="1167" y2="416" stroke="rgb(136,34,85)" stroke-width="1"/>
<line x1="1167" y1="416" x2="1181" y2="417" stroke="rgb(136,34,85)" stroke-width="1"/>
<line x1="1181" y1="417" x2="1195" y2="414" stroke="rgb(136,34,85)" stroke-width="1"/>
<line x1="1195" y1="414" x2="1209" y2="414" stroke="rgb(136,34,85)" stroke-width="1"/>
<line x1="1209" y1="414" x2="1223" y2="416" stroke="rgb(136,34,85)" stroke-width="1"/>
<line x1="1223" y1="416" x2="1237" y2="412" stroke="rgb(136,34,85)" stroke-width="1"/>
<line x1="1237" y1="412" x2="1251" y2="415" stroke="rgb(136,34,85)" stroke-width="1"/>
<line x1="1251" y1="415" x2="1265" y2="416" stroke="rgb(136,34,85)" stroke-width="1"/>
<line x1="1265" y1="416" x2="1279" y2="415" stroke="rgb(136,34,85)" stroke-width="1"/>
<line x1="33" y1="370" x2="47" y2="451" stroke="rgb(51,34,136)" stroke-width="1"/>
<line x1="47" y1="451" x2="61" y2="418" stroke="rgb(51,34,136)" stroke-width="1"/>
<line x1="61" y1="418" x2="75" y2="452" stroke="rgb(51,34,136)" stroke-width="1"/>
<line x1="75" y1="452" x2="89" y2="476" stroke="rgb(51,34,136)" stroke-width="1"/>
<line x1="89" y1="476" x2="103" y2="465" stroke="rgb(51,34,136)" stroke-width="1"/>
<line x1="103" y1="465" x2="117" y2="457" stroke="rgb(51,34,136)" stroke-width="1"/>
<line x1="117" y1="457" x2="131" y2="437" stroke="rgb(51,34,136)" stroke-width="1"/>
<line x1="131" y1="437" x2="145" y2="439" stroke="rgb(51,34,136)" stroke-width="1"/>
<line x1="145" y1="439" x2="159" y2="471" stroke="rgb(51,34,136)" stroke-width="1"/>
<line x1="159" y1="471" x2="173" y2="437" stroke="rgb(51,34,136)" stroke-width="1"/>
<line x1="173" y1="437" x2="187" y2="435" stroke="rgb(51,34,136)" stroke-width="1"/>
<line x1="187" y1="435" x2="201" y2="451" stroke="rgb(51,34,136)" stroke-width="1"/>
<line x1="201" y1="451" x2="215" y2="452" stroke="rgb(51,34,136)" stroke-width="1"/>
<line x1="215" y1="452" x2="229" y2="451" stroke="rgb(51,34,136)" stroke-width="1"/>
<line x1="229" y1="451" x2="243" y2="447" stroke="rgb(51,34,136)" stroke-width="1"/>
<line x1="243" y1="447" x2="257" y2="450" stroke="rgb(51,34,136)" stroke-width="1"/>
<line x1="257" y1="450" x2="271" y2="447" stroke="rgb(51,34,136)" stroke-width="1"/>
<line x1="271" y1="447" x2="285" y2="445" stroke="rgb(51,34,136)" stroke-width="1"/>
<line x1="285" y1="445" x2="299" y2="449" stroke="rgb(51,34,136)" stroke-width="1"/>
<line x1="299" y1="449" x2="313" y2="447" stroke="rgb(51,34,136)" stroke-width="1"/>
<line x1="313" y1="447" x2="327" y2="445" stroke="rgb(51,34,136)" stroke-width="1"/>
<line x1="327" y1="445" x2="341" y2="449" stroke="rgb(51,34,136)" stroke-width="1"/>
<line x1="341" y1="449" x2="355" y2="447" stroke="rgb(51,34,136)" stroke-width="1"/>
<line x1="355" y1="447" x2="369" y2="446" stroke="rgb(51,34,136)" stroke-width="1"/>
<line x1="369" y1="446" x2="383" y2="448" stroke="rgb(51,34,136)" stroke-width="1"/>
<line x1="383" y1="448" x2="397" y2="445" stroke="rgb(51,34,136)" stroke-width="1"/>
<line x1="397" y1="445" x2="411" y2="443" stroke="rgb(51,34,136)" stroke-width="1"/>
<line x1="411" y1="443" x2="425" y2="443" stroke="rgb(51,34,136)" stroke-width="1"/>
<line x1="425" y1="443" x2="439" y2="442" stroke="rgb(51,34,136)" stroke-width="1"/>
<line x1="439" y1="442" x2="453" y2="443" stroke="rgb(51,34,136)" stroke-width="1"/>
<line x1="453" y1="443" x2="467" y2="443" stroke="rgb(51,34,136)" stroke-width="1"/>
<line x1="467" y1="443" x2="481" y2="443" stroke="rgb(51,34,136)" stroke-width="1"/>
<line x1="481" y1="443" x2="495" y2="442" stroke="rgb(51,34,136)" stroke-width="1"/>
<line x1="495" y1="442" x2="509" y2="444" stroke="rgb(51,34,136)" stroke-width="1"/>
<line x1="509" y1="444" x2="523" y2="444" stroke="rgb(51,34,136)" stroke-width="1"/>
<line x1="523" y1="444" x2="537" y2="445" stroke="rgb(51,34,136)" stroke-width="1"/>
<line x1="537" y1="445" x2="551" y2="447" stroke="rgb(51,34,136)" stroke-width="1"/>
<line x1="551" y1="447" x2="565" y2="446" stroke="rgb(51,34,136)" stroke-width="1"/>
<line x1="565" y1="446" x2="579" y2="444" stroke="rgb(51,34,136)" stroke-width="1"/>
<line x1="579" y1="444" x2="593" y2="444" stroke="rgb(51,34,136)" stroke-width="1"/>
<line x1="593" y1="444" x2="607" y2="443" stroke="rgb(51,34,136)" stroke-width="1"/>
<line x1="607" y1="443" x2="621" y2="442" stroke="rgb(51,34,136)" stroke-width="1"/>
<line x1="621" y1="442" x2="635" y2="443" stroke="rgb(51,34,136)" stroke-width="1"/>
<line x1="635" y1="443" x2="649" y2="442" stroke="rgb(51,34,136)" stroke-width="1"/>
<line x1="649" y1="442" x2="663" y2="444" stroke="rgb(51,34,136)" stroke-width="1"/>
<line x1="663" y1="444" x2="677" y2="444" stroke="rgb(51,34,136)" stroke-width="1"/>
<line x1="677" y1="444" x2="691" y2="444" stroke="rgb(51,34,136)" stroke-width="1"/>
<line x1="691" y1="444" x2="705" y2="445" stroke="rgb(51,34,136)" stroke-width="1"/>
<line x1="705" y1="445" x2="719" y2="444" stroke="rgb(51,34,136)" stroke-width="1"/>
<line x1="719" y1="444" x2="733" y2="445" stroke="rgb(51,34,136)" stroke-width="1"/>
<line x1="733" y1="445" x2="747" y2="446" stroke="rgb(51,34,136)" stroke-width="1"/>
<line x1="747" y1="446" x2="761" y2="446" stroke="rgb(51,34,136)" stroke-width="1"/>
<line x1="761" y1="446" x2="775" y2="444" stroke="rgb(51,34,136)" stroke-width="1"/>
<line x1="775" y1="444" x2="789" y2="445" stroke="rgb(51,34,136)" stroke-width="1"/>
<line x1="789" y1="445" x2="803" y2="448" stroke="rgb(51,34,136)" stroke-width="1"/>
<line x1="803" y1="448" x2="817" y2="445" stroke="rgb(51,34,136)" stroke-width="1"/>
<line x1="817" y1="445" x2="831" y2="445" stroke="rgb(51,34,136)" stroke-width="1"/>
<line x1="831" y1="445" x2="845" y2="446" stroke="rgb(51,34,136)" stroke-width="1"/>
<line x1="845" y1="446" x2="859" y2="445" stroke="rgb(51,34,136)" stroke-width="1"/>
<line x1="859" y1="445" x2="873" y2="445" stroke="rgb(51,34,136)" stroke-width="1"/>
<line x1="873" y1="445" x2="887" y2="447" stroke="rgb(51,34,136)" stroke-width="1"/>
<line x1="887" y1="447" x2="901" y2="443" stroke="rgb(51,34,136)" stroke-width="1"/>
<line x1="901" y1="443" x2="915" y2="444" stroke="rgb(51,34,136)" stroke-width="1"/>
<line x1="915" y1="444" x2="929" y2="444" stroke="rgb(51,34,136)" stroke-width="1"/>
<line x1="929" y1="444" x2="943" y2="445" stroke="rgb(51,34,136)" stroke-width="1"/>
<line x1="943" y1="445" x2="957" y2="443" stroke="rgb(51,34,136)" stroke-width="1"/>
<line x1="957" y1="443" x2="971" y2="445" stroke="rgb(51,34,136)" stroke-width="1"/>
<line x1="971" y1="445" x2="985" y2="444" stroke="rgb(51,34,136)" stroke-width="1"/>
<line x1="985" y1="444" x2="999" y2="441" stroke="rgb(51,34,136)" stroke-width="1"/>
<line x1="999" y1="441" x2="1013" y2="443" stroke="rgb(51,34,136)" stroke-width="1"/>
<line x1="1013" y1="443" x2="1027" y2="443" stroke="rgb(51,34,136)" stroke-width="1"/>
<line x1="1027" y1="443" x2="1041" y2="443" stroke="rgb(51,34,136)" stroke-width="1"/>
<line x1="1041" y1="443" x2="1055" y2="443" stroke="rgb(51,34,136)" stroke-width="1"/>
<line x1="1055" y1="443" x2="1069" y2="446" stroke="rgb(51,34,136)" stroke-width="1"/>
<line x1="1069" y1="446" x2="1083" y2="445" stroke="rgb(51,34,136)" stroke-width="1"/>
<line x1="1083" y1="445" x2="1097" y2="446" stroke="rgb(51,34,136)" stroke-width="1"/>
<line x1="1097" y1="446" x2="1111" y2="444" stroke="rgb(51,34,136)" stroke-width="1"/>
<line x1="1111" y1="444" x2="1125" y2="444" stroke="rgb(51,34,136)" stroke-width="1"/>
<line x1="1125" y1="444" x2="1139" y2="446" stroke="rgb(51,34,136)" stroke-width="1"/>
<line x1="1139" y1="446" x2="1153" y2="443" stroke="rgb(51,34,136)" stroke-width="1"/>
<line x1="1153" y1="443" x2="1167" y2="443" stroke="rgb(51,34,136)" stroke-width="1"/>
<line x1="1167" y1="443" x2="1181" y2="444" stroke="rgb(51,34,136)" stroke-width="1"/>
<line x1="1181" y1="444" x2="1195" y2="443" stroke="rgb(51,34,136)" stroke-width="1"/>
<line x1="1195" y1="443" x2="1209" y2="442" stroke="rgb(51,34,136)" stroke-width="1"/>
<line x1="1209" y1="442" x2="1223" y2="443" stroke="rgb(51,34,136)" stroke-width="1"/>
<line x1="1223" y1="443" x2="1237" y2="445" stroke="rgb(51,34,136)" stroke-width="1"/>
<line x1="1237" y1="445" x2="1251" y2="441" stroke="rgb(51,34,136)" stroke-width="1"/>
<line x1="1251" y1="441" x2="1265" y2="442" stroke="rgb(51,34,136)" stroke-width="1"/>
<line x1="1265" y1="442" x2="1279" y2="443" stroke="rgb(51,34,136)" stroke-width="1"/>
<line x1="33" y1="502" x2="47" y2="464" stroke="rgb(17,119,51)" stroke-width="1"/>
<line x1="47" y1="464" x2="61" y2="444" stroke="rgb(17,119,51)" stroke-width="1"/>
<line x1="61" y1="444" x2="75" y2="419" stroke="rgb(17,119,51)" stroke-width="1"/>
<line x1="75" y1="419" x2="89" y2="401" stroke="rgb(17,119,51)" stroke-width="1"/>
<line x1="89" y1="401" x2="103" y2="378" stroke="rgb(17,119,51)" stroke-width="1"/>
<line x1="103" y1="378" x2="117" y2="461" stroke="rgb(17,119,51)" stroke-width="1"/>
<line x1="117" y1="461" x2="131" y2="432" stroke="rgb(17,119,51)" stroke-width="1"/>
<line x1="131" y1="432" x2="145" y2="443" stroke="rgb(17,119,51)" stroke-width="1"/>
<line x1="145" y1="443" x2="159" y2="368" stroke="rgb(17,119,51)" stroke-width="1"/>
<line x1="159" y1="368" x2="173" y2="410" stroke="rgb(17,119,51)" stroke-width="1"/>
<line x1="173" y1="410" x2="187" y2="431" stroke="rgb(17,119,51)" stroke-width="1"/>
<line x1="187" y1="431" x2="201" y2="419" stroke="rgb(17,119,51)" stroke-width="1"/>
<line x1="201" y1="419" x2="215" y2="414" stroke="rgb(17,119,51)" stroke-width="1"/>
<line x1="215" y1="414" x2="229" y2="411" stroke="rgb(17,119,51)" stroke-width="1"/>
<line x1="229" y1="411" x2="243" y2="414" stroke="rgb(17,119,51)" stroke-width="1"/>
<line x1="243" y1="414" x2="257" y2="413" stroke="rgb(17,119,51)" stroke-width="1"/>
<line x1="257" y1="413" x2="271" y2="414" stroke="rgb(17,119,51)" stroke-width="1"/>
<line x1="271" y1="414" x2="285" y2="417" stroke="rgb(17,119,51)" stroke-width="1"/>
<line x1="285" y1="417" x2="299" y2="414" stroke="rgb(17,119,51)" stroke-width="1"/>
<line x1="299" y1="414" x2="313" y2="415" stroke="rgb(17,119,51)" stroke-width="1"/>
<line x1="313" y1="415" x2="327" y2="416" stroke="rgb(17,119,51)" stroke-width="1"/>
<line x1="327" y1="416" x2="341" y2="416" stroke="rgb(17,119,51)" stroke-width="1"/>
<line x1="341" y1="416" x2="355" y2="414" stroke="rgb(17,119,51)" stroke-width="1"/>
<line x1="355" y1="414" x2="369" y2="414" stroke="rgb(17,119,51)" stroke-width="1"/>
<line x1="369" y1="414" x2="383" y2="415" stroke="rgb(17,119,51)" stroke-width="1"/>
<line x1="383" y1="415" x2="397" y2="416" stroke="rgb(17,119,51)" stroke-width="1"/>
<line x1="397" y1="416" x2="411" y2="417" stroke="rgb(17,119,51)" stroke-width="1"/>
<line x1="411" y1="417" x2="425" y2="417" stroke="rgb(17,119,51)" stroke-width="1"/>
<line x1="425" y1="417" x2="439" y2="418" stroke="rgb(17,119,51)" stroke-width="1"/>
<line x1="439" y1="418" x2="453" y2="417" stroke="rgb(17,119,51)" stroke-width="1"/>
<line x1="453" y1="417" x2="467" y2="418" stroke="rgb(17,119,51)" stroke-width="1"/>
<line x1="467" y1="418" x2="481" y2="417" stroke="rgb(17,119,51)" stroke-width="1"/>
<line x1="481" y1="417" x2="495" y2="415" stroke="rgb(17,119,51)" stroke-width="1"/>
<line x1="495" y1="415" x2="509" y2="415" stroke="rgb(17,119,51)" stroke-width="1"/>
<line x1="509" y1="415" x2="523" y2="416" stroke="rgb(17,119,51)" stroke-width="1"/>
<line x1="523" y1="416" x2="537" y2="417" stroke="rgb(17,119,51)" stroke-width="1"/>
<line x1="537" y1="417" x2="551" y2="414" stroke="rgb(17,119,51)" stroke-width="1"/>
<line x1="551" y1="414" x2="565" y2="416" stroke="rgb(17,119,51)" stroke-width="1"/>
<line x1="565" y1="416" x2="579" y2="415" stroke="rgb(17,119,51)" stroke-width="1"/>
<line x1="579" y1="415" x2="593" y2="414" stroke="rgb(17,119,51)" stroke-width="1"/>
<line x1="593" y1="414" x2="607" y2="414" stroke="rgb(17,119,51)" stroke-width="1"/>
<line x1="607" y1="414" x2="621" y2="416" stroke="rgb(17,119,51)" stroke-width="1"/>
<line x1="621" y1="416" x2="635" y2="413" stroke="rgb(17,119,51)" stroke-width="1"/>
<line x1="635" y1="413" x2="649" y2="413" stroke="rgb(17,119,51)" stroke-width="1"/>
<line x1="649" y1="413" x2="663" y2="416" stroke="rgb(17,119,51)" stroke-width="1"/>
<line x1="663" y1="416" x2="677" y2="415" stroke="rgb(17,119,51)" stroke-width="1"/>
<line x1="677" y1="415" x2="691" y2="415" stroke="rgb(17,119,51)" stroke-width="1"/>
<line x1="691" y1="415" x2="705" y2="416" stroke="rgb(17,119,51)" stroke-width="1"/>
<line x1="705" y1="416" x2="719" y2="416" stroke="rgb(17,119,51)" stroke-width="1"/>
<line x1="719" y1="416" x2="733" y2="414" stroke="rgb(17,119,51)" stroke-width="1"/>
<line x1="733" y1="414" x2="747" y2="416" stroke="rgb(17,119,51)" stroke-width="1"/>
<line x1="747" y1="416" x2="761" y2="413" stroke="rgb(17,119,51)" stroke-width="1"/>
<line x1="761" y1="413" x2="775" y2="417" stroke="rgb(17,119,51)" stroke-width="1"/>
<line x1="775" y1="417" x2="789" y2="417" stroke="rgb(17,119,51)" stroke-width="1"/>
<line x1="789" y1="417" x2="803" y2="412" stroke="rgb(17,119,51)" stroke-width="1"/>
<line x1="803" y1="412" x2="817" y2="419" stroke="rgb(17,119,51)" stroke-width="1"/>
<line x1="817" y1="419" x2="831" y2="416" stroke="rgb(17,119,51)" stroke-width="1"/>
<line x1="831" y1="416" x2="845" y2="417" stroke="rgb(17,119,51)" stroke-width="1"/>
<line x1="845" y1="417" x2="859" y2="416" stroke="rgb(17,119,51)" stroke-width="1"/>
<line x1="859" y1="416" x2="873" y2="416" stroke="rgb(17,119,51)" stroke-width="1"/>
<line x1="873" y1="416" x2="887" y2="414" stroke="rgb(17,119,51)" stroke-width="1"/>
<line x1="887" y1="414" x2="901" y2="415" stroke="rgb(17,119,51)" stroke-width="1"/>
<line x1="901" y1="415" x2="915" y2="418" stroke="rgb(17,119,51)" stroke-width="1"/>
<line x1="915" y1="418" x2="929" y2="415" stroke="rgb(17,119,51)" stroke-width="1"/>
<line x1="929" y1="415" x2="943" y2="413" stroke="rgb(17,119,51)" stroke-width="1"/>
<line x1="943" y1="413" x2="957" y2="415" stroke="rgb(17,119,51)" stroke-width="1"/>
<line x1="957" y1="415" x2="971" y2="413" stroke="rgb(17,119,51)" stroke-width="1"/>
<line x1="971" y1="413" x2="985" y2="415" stroke="rgb(17,119,51)" stroke-width="1"/>
<line x1="985" y1="415" x2="999" y2="417" stroke="rgb(17,119,51)" stroke-width="1"/>
<line x1="999" y1="417" x2="1013" y2="414" stroke="rgb(17,119,51)" stroke-width="1"/>
<line x1="1013" y1="414" x2="1027" y2="415" stroke="rgb(17,119,51)" stroke-width="1"/>
<line x1="1027" y1="415" x2="1041" y2="417" stroke="rgb(17,119,51)" stroke-width="1"/>
<line x1="1041" y1="417" x2="1055" y2="416" stroke="rgb(17,119,51)" stroke-width="1"/>
<line x1="1055" y1="416" x2="1069" y2="417" stroke="rgb(17,119,51)" stroke-width="1"/>
<line x1="1069" y1="417" x2="1083" y2="416" stroke="rgb(17,119,51)" stroke-width="1"/>
<line x1="1083" y1="416" x2="1097" y2="417" stroke="rgb(17,119,51)" stroke-width="1"/>
<line x1="1097" y1="417" x2="1111" y2="418" stroke="rgb(17,119,51)" stroke-width="1"/>
<line x1="1111" y1="418" x2="1125" y2="419" stroke="rgb(17,119,51)" stroke-width="1"/>
<line x1="1125" y1="419" x2="1139" y2="418" stroke="rgb(17,119,51)" stroke-width="1"/>
<line x1="1139" y1="418" x2="1153" y2="418" stroke="rgb(17,119,51)" stroke-width="1"/>
<line x1="1153" y1="418" x2="1167" y2="417" stroke="rgb(17,119,51)" stroke-width="1"/>
<line x1="1167" y1="417" x2="1181" y2="414" stroke="rgb(17,119,51)" stroke-width="1"/>
<line x1="1181" y1="414" x2="1195" y2="417" stroke="rgb(17,119,51)" stroke-width="1"/>
<line x1="1195" y1="417" x2="1209" y2="418" stroke="rgb(17,119,51)" stroke-width="1"/>
<line x1="1209" y1="418" x2="1223" y2="418" stroke="rgb(17,119,51)" stroke-width="1"/>
<line x1="1223" y1="418" x2="1237" y2="417" stroke="rgb(17,119,51)" stroke-width="1"/>
<line x1="1237" y1="417" x2="1251" y2="422" stroke="rgb(17,119,51)" stroke-width="1"/>
<line x1="1251" y1="422" x2="1265" y2="419" stroke="rgb(17,119,51)" stroke-width="1"/>
<line x1="1265" y1="419" x2="1279" y2="418" stroke="rgb(17,119,51)" stroke-width="1"/>
<line x1="33" y1="375" x2="47" y2="413" stroke="rgb(221,204,119)" stroke-width="1"/>
<line x1="47" y1="413" x2="61" y2="421" stroke="rgb(221,204,119)" stroke-width="1"/>
<line x1="61" y1="421" x2="75" y2="405" stroke="rgb(221,204,119)" stroke-width="1"/>
<line x1="75" y1="405" x2="89" y2="420" stroke="rgb(221,204,119)" stroke-width="1"/>
<line x1="89" y1="420" x2="103" y2="450" stroke="rgb(221,204,119)" stroke-width="1"/>
<line x1="103" y1="450" x2="117" y2="465" stroke="rgb(221,204,119)" stroke-width="1"/>
<line x1="117" y1="465" x2="131" y2="454" stroke="rgb(221,204,119)" stroke-width="1"/>
<line x1="131" y1="454" x2="145" y2="451" stroke="rgb(221,204,119)" stroke-width="1"/>
<line x1="145" y1="451" x2="159" y2="456" stroke="rgb(221,204,119)" stroke-width="1"/>
<line x1="159" y1="456" x2="173" y2="430" stroke="rgb(221,204,119)" stroke-width="1"/>
<line x1="173" y1="430" x2="187" y2="448" stroke="rgb(221,204,119)" stroke-width="1"/>
<line x1="187" y1="448" x2="201" y2="452" stroke="rgb(221,204,119)" stroke-width="1"/>
<line x1="201" y1="452" x2="215" y2="450" stroke="rgb(221,204,119)" stroke-width="1"/>
<line x1="215" y1="450" x2="229" y2="449" stroke="rgb(221,204,119)" stroke-width="1"/>
<line x1="229" y1="449" x2="243" y2="446" stroke="rgb(221,204,119)" stroke-width="1"/>
<line x1="243" y1="446" x2="257" y2="446" stroke="rgb(221,204,119)" stroke-width="1"/>
<line x1="257" y1="446" x2="271" y2="448" stroke="rgb(221,204,119)" stroke-width="1"/>
<line x1="271" y1="448" x2="285" y2="447" stroke="rgb(221,204,119)" stroke-width="1"/>
<line x1="285" y1="447" x2="299" y2="445" stroke="rgb(221,204,119)" stroke-width="1"/>
<line x1="299" y1="445" x2="313" y2="449" stroke="rgb(221,204,119)" stroke-width="1"/>
<line x1="313" y1="449" x2="327" y2="447" stroke="rgb(221,204,119)" stroke-width="1"/>
<line x1="327" y1="447" x2="341" y2="446" stroke="rgb(221,204,119)" stroke-width="1"/>
<line x1="341" y1="446" x2="355" y2="450" stroke="rgb(221,204,119)" stroke-width="1"/>
<line x1="355" y1="450" x2="369" y2="448" stroke="rgb(221,204,119)" stroke-width="1"/>
<line x1="369" y1="448" x2="383" y2="447" stroke="rgb(221,204,119)" stroke-width="1"/>
<line x1="383" y1="447" x2="397" y2="449" stroke="rgb(221,204,119)" stroke-width="1"/>
<line x1="397" y1="449" x2="411" y2="447" stroke="rgb(221,204,119)" stroke-width="1"/>
<line x1="411" y1="447" x2="425" y2="445" stroke="rgb(221,204,119)" stroke-width="1"/>
<line x1="425" y1="445" x2="439" y2="447" stroke="rgb(221,204,119)" stroke-width="1"/>
<line x1="439" y1="447" x2="453" y2="446" stroke="rgb(221,204,119)" stroke-width="1"/>
<line x1="453" y1="446" x2="467" y2="445" stroke="rgb(221,204,119)" stroke-width="1"/>
<line x1="467" y1="445" x2="481" y2="445" stroke="rgb(221,204,119)" stroke-width="1"/>
<line x1="481" y1="445" x2="495" y2="447" stroke="rgb(221,204,119)" stroke-width="1"/>
<line x1="495" y1="447" x2="509" y2="444" stroke="rgb(221,204,119)" stroke-width="1"/>
<line x1="509" y1="444" x2="523" y2="447" stroke="rgb(221,204,119)" stroke-width="1"/>
<line x1="523" y1="447" x2="537" y2="445" stroke="rgb(221,204,119)" stroke-width="1"/>
<line x1="537" y1="445" x2="551" y2="446" stroke="rgb(221,204,119)" stroke-width="1"/>
<line x1="551" y1="446" x2="565" y2="446" stroke="rgb(221,204,119)" stroke-width="1"/>
<line x1="565" y1="446" x2="579" y2="444" stroke="rgb(221,204,119)" stroke-width="1"/>
<line x1="579" y1="444" x2="593" y2="446" stroke="rgb(221,204,119)" stroke-width="1"/>
<line x1="593" y1="446" x2="607" y2="449" stroke="rgb(221,204,119)" stroke-width="1"/>
<line x1="607" y1="449" x2="621" y2="446" stroke="rgb(221,204,119)" stroke-width="1"/>
<line x1="621" y1="446" x2="635" y2="448" stroke="rgb(221,204,119)" stroke-width="1"/>
<line x1="635" y1="448" x2="649" y2="449" stroke="rgb(221,204,119)" stroke-width="1"/>
<line x1="649" y1="449" x2="663" y2="448" stroke="rgb(221,204,119)" stroke-width="1"/>
<line x1="663" y1="448" x2="677" y2="445" stroke="rgb(221,204,119)" stroke-width="1"/>
<line x1="677" y1="445" x2="691" y2="448" stroke="rgb(221,204,119)" stroke-width="1"/>
<line x1="691" y1="448" x2="705" y2="446" stroke="rgb(221,204,119)" stroke-width="1"/>
<line x1="705" y1="446" x2="719" y2="444" stroke="rgb(221,204,119)" stroke-width="1"/>
<line x1="719" y1="444" x2="733" y2="448" stroke="rgb(221,204,119)" stroke-width="1"/>
<line x1="733" y1="448" x2="747" y2="444" stroke="rgb(221,204,119)" stroke-width="1"/>
<line x1="747" y1="444" x2="761" y2="445" stroke="rgb(221,204,119)" stroke-width="1"/>
<line x1="761" y1="445" x2="775" y2="445" stroke="rgb(221,204,119)" stroke-width="1"/>
<line x1="775" y1="445" x2="789" y2="444" stroke="rgb(221,204,119)" stroke-width="1"/>
<line x1="789" y1="444" x2="803" y2="443" stroke="rgb(221,204,119)" stroke-width="1"/>
<line x1="803" y1="443" x2="817" y2="444" stroke="rgb(221,204,119)" stroke-width="1"/>
<line x1="817" y1="444" x2="831" y2="443" stroke="rgb(221,204,119)" stroke-width="1"/>
<line x1="831" y1="443" x2="845" y2="444" stroke="rgb(221,204,119)" stroke-width="1"/>
<line x1="845" y1="444" x2="859" y2="444" stroke="rgb(221,204,119)" stroke-width="1"/>
<line x1="859" y1="444" x2="873" y2="444" stroke="rgb(221,204,119)" stroke-width="1"/>
<line x1="873" y1="444" x2="887" y2="443" stroke="rgb(221,204,119)" stroke-width="1"/>
<line x1="887" y1="443" x2="901" y2="446" stroke="rgb(221,204,119)" stroke-width="1"/>
<line x1="901" y1="446" x2="915" y2="444" stroke="rgb(221,204,119)" stroke-width="1"/>
<line x1="915" y1="444" x2="929" y2="444" stroke="rgb(221,204,119)" stroke-width="1"/>
<line x1="929" y1="444" x2="943" y2="448" stroke="rgb(221,204,119)" stroke-width="1"/>
<line x1="943" y1="448" x2="957" y2="446" stroke="rgb(221,204,119)" stroke-width="1"/>
<line x1="957" y1="446" x2="971" y2="442" stroke="rgb(221,204,119)" stroke-width="1"/>
<line x1="971" y1="442" x2="985" y2="444" stroke="rgb(221,204,119)" stroke-width="1"/>
<line x1="985" y1="444" x2="999" y2="444" stroke="rgb(221,204,119)" stroke-width="1"/>
<line x1="999" y1="444" x2="1013" y2="445" stroke="rgb(221,204,119)" stroke-width="1"/>
<line x1="1013" y1="445" x2="1027" y2="446" stroke="rgb(221,204,119)" stroke-width="1"/>
<line x1="1027" y1="446" x2="1041" y2="445" stroke="rgb(221,204,119)" stroke-width="1"/>
<line x1="1041" y1="445" x2="1055" y2="445" stroke="rgb(221,204,119)" stroke-width="1"/>
<line x1="1055" y1="445" x2="1069" y2="442" stroke="rgb(221,204,119)" stroke-width="1"/>
<line x1="1069" y1="442" x2="1083" y2="444" stroke="rgb(221,204,119)" stroke-width="1"/>
<line x1="1083" y1="444" x2="1097" y2="443" stroke="rgb(221,204,119)" stroke-width="1"/>
<line x1="1097" y1="443" x2="1111" y2="444" stroke="rgb(221,204,119)" stroke-width="1"/>
<line x1="1111" y1="444" x2="1125" y2="443" stroke="rgb(221,204,119)" stroke-width="1"/>
<line x1="1125" y1="443" x2="1139" y2="446" stroke="rgb(221,204,119)" stroke-width="1"/>
<line x1="1139" y1="446" x2="1153" y2="446" stroke="rgb(221,204,119)" stroke-width="1"/>
<line x1="1153" y1="446" x2="1167" y2="446" stroke="rgb(221,204,119)" stroke-width="1"/>
<line x1="1167" y1="446" x2="1181" y2="447" stroke="rgb(221,204,119)" stroke-width="1"/>
<line x1="1181" y1="447" x2="1195" y2="448" stroke="rgb(221,204,119)" stroke-width="1"/>
<line x1="1195" y1="448" x2="1209" y2="448" stroke="rgb(221,204,119)" stroke-width="1"/>
<line x1="1209" y1="448" x2="1223" y2="445" stroke="rgb(221,204,119)" stroke-width="1"/>
<line x1="1223" y1="445" x2="1237" y2="448" stroke="rgb(221,204,119)" stroke-width="1"/>
<line x1="1237" y1="448" x2="1251" y2="445" stroke="rgb(221,204,119)" stroke-width="1"/>
<line x1="1251" y1="445" x2="1265" y2="445" stroke="rgb(221,204,119)" stroke-width="1"/>
<line x1="1265" y1="445" x2="1279" y2="447" stroke="rgb(221,204,119)" stroke-width="1"/>
<rect width="26" height="83" x="1314" y="40" style="fill:rgb(255,255,255);stroke:none"/>
<rect width="26" height="83" x="1314" y="40" rx="0" ry="0" style="fill:none;stroke-width:1;stroke:rgb(192,192,192)"/>
<text x="1317" y="55" fill="rgb(136,34,85)" font-family="Arial" font-size="12" font-weight="bold">%T</text>
<text x="1317" y="75" fill="rgb(51,34,136)" font-family="Arial" font-size="12" font-weight="bold">%C</text>
<text x="1317" y="95" fill="rgb(17,119,51)" font-family="Arial" font-size="12" font-weight="bold">%A</text>
<text x="1317" y="115" fill="rgb(221,204,119)" font-family="Arial" font-size="12" font-weight="bold">%G</text>
</svg>
