<?xml version="1.0" standalone="no"?>
<!DOCTYPE svg PUBLIC "-//W3C//DTD SVG 1.1//EN" "http://www.w3.org/Graphics/SVG/1.1/DTD/svg11.dtd">
<svg width="800" height="600" version="1.1" xmlns="http://www.w3.org/2000/svg">
<rect width="800" height="600" x="0" y="0" style="fill:rgb(238,238,238);stroke:none"/>
<rect width="800" height="600" x="0" y="0" style="fill:rgb(255,255,255);stroke:none"/>
<text x="2" y="566" fill="rgb(0,0,0)" font-family="Arial" font-size="12">0</text>
<text x="2" y="470" fill="rgb(0,0,0)" font-family="Arial" font-size="12">5000000</text>
<text x="2" y="374" fill="rgb(0,0,0)" font-family="Arial" font-size="12">1.0E7</text>
<text x="2" y="278" fill="rgb(0,0,0)" font-family="Arial" font-size="12">1.5E7</text>
<text x="2" y="182" fill="rgb(0,0,0)" font-family="Arial" font-size="12">2.0E7</text>
<text x="2" y="86" fill="rgb(0,0,0)" font-family="Arial" font-size="12">2.5E7</text>
<text x="279" y="30" fill="rgb(0,0,0)" font-family="Arial" font-size="12">Distribution of sequence lengths over all sequences</text>
<line x1="54" y1="560" x2="790" y2="560" stroke="rgb(0,0,0)" stroke-width="1"/>
<line x1="54" y1="560" x2="54" y2="40" stroke="rgb(0,0,0)" stroke-width="1"/>
<text x="340" y="595" fill="rgb(0,0,0)" font-family="Arial" font-size="12">Sequence Length (bp)</text>
<text x="169" y="575" fill="rgb(0,0,0)" font-family="Arial" font-size="12">89</text>
<rect width="245" height="520" x="299" y="40" style="fill:rgb(230,230,230);stroke:none"/>
<text x="414" y="575" fill="rgb(0,0,0)" font-family="Arial" font-size="12">90</text>
<text x="659" y="575" fill="rgb(0,0,0)" font-family="Arial" font-size="12">91</text>
<line x1="54" y1="560" x2="790" y2="560" stroke="rgb(180,180,180)" stroke-width="1"/>
<line x1="54" y1="464" x2="790" y2="464" stroke="rgb(180,180,180)" stroke-width="1"/>
<line x1="54" y1="368" x2="790" y2="368" stroke="rgb(180,180,180)" stroke-width="1"/>
<line x1="54" y1="272" x2="790" y2="272" stroke="rgb(180,180,180)" stroke-width="1"/>
<line x1="54" y1="176" x2="790" y2="176" stroke="rgb(180,180,180)" stroke-width="1"/>
<line x1="54" y1="80" x2="790" y2="80" stroke="rgb(180,180,180)" stroke-width="1"/>
<line x1="176" y1="560" x2="421" y2="40" stroke="rgb(136,34,85)" stroke-width="1"/>
<line x1="421" y1="40" x2="666" y2="560" stroke="rgb(136,34,85)" stroke-width="1"/>
<rect width="110" height="23" x="680" y="40" style="fill:rgb(255,255,255);stroke:none"/>
<rect width="110" height="23" x="680" y="40" rx="0" ry="0" style="fill:none;stroke-width:1;stroke:rgb(192,192,192)"/>
<text x="683" y="55" fill="rgb(136,34,85)" font-family="Arial" font-size="12" font-weight="bold">Sequence Length</text>
</svg>
